<svg width="27" height="24" viewBox="0 0 27 24" fill="none" xmlns="http://www.w3.org/2000/svg">
<g clip-path="url(#clip0_40004329_58044)">
<path d="M13.4329 23.9978C11.7002 23.9978 9.96673 23.9925 8.23399 23.9978C7.17115 24.0023 6.3624 23.581 5.80697 22.6307C4.92509 21.1234 4.03435 19.6161 3.10889 18.1427C2.14872 16.6128 1.27201 15.0309 0.351727 13.4761C-0.0914289 12.7224 -0.0655782 11.8874 0.158954 11.0606C0.380532 10.252 0.904933 9.61212 1.32298 8.91273C2.25213 7.36473 3.18792 5.81824 4.10673 4.26271C4.71459 3.23473 5.30178 2.19318 5.96356 1.20138C6.42591 0.508775 7.10837 0.139486 7.91566 0.0618599C9.40983 -0.0820874 10.907 0.0731646 12.4033 0.0558307C13.4677 0.0437723 14.5349 0.10105 15.5963 0.0415113C16.7153 -0.0217953 17.8283 0.0776865 18.9451 0.0671354C19.934 0.0588453 20.6904 0.564545 21.2118 1.41542C21.8519 2.45947 22.4842 3.5073 23.1085 4.55889C23.4328 5.10227 23.723 5.66751 24.0635 6.19884C24.6632 7.13412 25.1884 8.11461 25.783 9.05366C26.2712 9.82465 26.8133 10.5798 26.9647 11.5302C27.0836 12.2891 26.9137 12.9862 26.5533 13.6328C26.0363 14.5591 25.489 15.4687 24.9417 16.3776C24.4527 17.1901 23.9328 17.9829 23.4497 18.7999C22.7532 19.9771 22.0531 21.1528 21.3647 22.3345C20.9466 23.0512 20.4304 23.581 19.6785 23.8704C19.3867 23.9827 19.0691 23.9963 18.7552 23.9963H13.4374L13.4329 23.9978ZM13.5253 1.7847C11.8826 1.7847 10.2403 1.7847 8.59812 1.7847C8.37636 1.78262 8.15502 1.8046 7.93781 1.85027C7.72805 1.89474 7.53011 1.9701 7.40677 2.16907C6.94293 2.91292 6.47983 3.65602 6.02486 4.4059C5.35865 5.50171 4.70056 6.60807 4.03878 7.7099C3.98265 7.8026 3.86669 7.89229 3.95754 8.01136C4.04838 8.13044 4.19463 8.10783 4.29507 8.05734C4.7109 7.84782 5.15775 7.80562 5.60534 7.7295C6.80343 7.52413 8.03391 7.6635 9.15871 8.13195C10.2895 8.59167 11.2622 9.32874 12.2054 10.1027C12.2963 10.1781 12.3827 10.3062 12.5156 10.2384C12.6486 10.1706 12.605 10.0206 12.6057 9.90152C12.6057 9.24358 12.6057 8.58565 12.6102 7.92771C12.6171 7.82633 12.5982 7.72483 12.5552 7.63315C12.5123 7.54147 12.4467 7.46274 12.3649 7.40468C12.0943 7.19491 11.8939 6.90482 11.7913 6.57422C11.6887 6.24363 11.6889 5.88873 11.7918 5.55823C12.0001 4.87995 12.4565 4.42248 13.1124 4.28833C13.4473 4.21224 13.7968 4.23979 14.1162 4.36746C14.4357 4.49514 14.7106 4.71713 14.9057 5.00505C15.4626 5.81372 15.3215 6.85376 14.4773 7.523C14.2993 7.66469 14.2373 7.79507 14.2402 8.00534C14.2506 8.71452 14.3266 9.41994 14.3045 10.1306C14.2964 10.4057 14.4219 10.4781 14.6738 10.3703C14.9412 10.2549 15.1995 10.1185 15.4463 9.96257C15.9634 9.63548 16.7138 9.51038 16.702 8.64443C16.702 8.56907 16.7817 8.50124 16.8039 8.42361C17.0853 7.4612 18.7604 6.90576 19.6741 8.06864C20.1453 8.67156 20.2228 9.62719 19.7649 10.2007C19.3262 10.7509 18.8047 11.1051 17.9509 10.8451C17.5521 10.7238 17.2655 10.8067 16.939 10.9958C16.391 11.3169 15.8703 11.6877 15.2986 11.9673C15.0771 12.0766 15.0933 12.2205 15.2743 12.3614C15.4102 12.4669 15.5564 12.5589 15.6901 12.6667C16.3666 13.2146 17.058 13.7391 17.8416 14.1242C18.8335 14.6111 19.875 14.8779 20.9732 14.7091C22.2658 14.5101 23.432 13.9871 24.5229 13.2379C25.3354 12.6795 25.3753 11.806 24.9314 11.0998C24.3634 10.1954 23.805 9.27825 23.2784 8.34599C22.8515 7.59233 22.3876 6.85677 21.9489 6.10764C21.3063 5.00581 20.584 3.95145 19.999 2.81494C19.6209 2.07863 19.0987 1.73346 18.2434 1.76737C16.6709 1.82766 15.0977 1.78395 13.5253 1.7847ZM12.6102 15.1062C12.6102 14.7158 12.6153 14.3254 12.6102 13.9343C12.6057 13.6328 12.5533 13.6132 12.2933 13.764C11.7253 14.0941 11.178 14.4619 10.5724 14.7204C10.3892 14.7957 10.3006 14.9465 10.2659 15.1469C10.096 16.1206 9.63436 16.6188 8.66607 16.6866C7.46733 16.7703 6.7893 15.9692 6.84691 14.8342C6.91265 13.5628 8.18894 12.9764 9.1203 13.3269C9.19933 13.3617 9.28481 13.3787 9.37087 13.3766C9.45693 13.3745 9.54153 13.3534 9.61885 13.3148C10.3035 12.9538 10.9904 12.586 11.6699 12.2092C11.9078 12.0758 11.9004 11.9537 11.6699 11.8105C11.3686 11.6244 11.0872 11.4096 10.7984 11.2076C9.94383 10.6047 9.14911 9.90604 8.10621 9.61212C7.23172 9.36492 6.35279 9.27901 5.47978 9.47119C4.24928 9.73948 3.11185 10.2497 2.14208 11.1013C1.8171 11.3885 1.64796 11.9303 1.77278 12.3509C1.87988 12.6983 2.06083 13.0013 2.25065 13.3043C2.73812 14.0835 3.22707 14.8613 3.69164 15.6541C4.11929 16.3852 4.58903 17.0861 4.99748 17.8337C5.6696 19.0591 6.43108 20.2341 7.13053 21.4444C7.4496 21.9969 7.84623 22.3066 8.51318 22.2787C9.89952 22.2207 11.2888 22.2787 12.6766 22.2885C13.6368 22.2938 14.6051 22.2403 15.569 22.3209C15.9272 22.3511 16.2898 22.229 16.6525 22.2772C17.3859 22.3752 18.1215 22.3036 18.8557 22.3277C19.0211 22.3337 19.1903 22.3179 19.2988 22.177C19.5005 21.9215 19.7302 21.6743 19.872 21.3849C20.2413 20.6312 20.7583 19.9763 21.1468 19.2362C21.2927 18.9446 21.4586 18.6638 21.6431 18.3959C22.1173 17.741 22.4556 17.0017 22.8921 16.3249C22.9438 16.2442 23.0287 16.138 22.9512 16.0438C22.8736 15.9496 22.7651 16.0438 22.6757 16.0754C22.0342 16.3088 21.3614 16.4407 20.6808 16.4666C19.9547 16.4862 19.2324 16.4455 18.5292 16.2307C17.7574 15.994 17.0003 15.7295 16.3334 15.2457C15.7351 14.8123 15.1228 14.3993 14.5157 13.9795C14.4419 13.9283 14.3636 13.8642 14.2668 13.92C14.193 13.9637 14.2018 14.0421 14.2181 14.1129C14.3466 14.6789 14.2808 15.2547 14.2993 15.8252C14.3119 16.2307 14.2535 16.6422 14.7358 16.8238C14.7528 16.8298 14.7646 16.8517 14.7779 16.8668C15.2949 17.4403 15.3651 18.2505 14.9471 18.9536C14.5859 19.5626 13.8392 20.0125 13.1331 19.7932C12.5252 19.6048 11.9949 19.3063 11.8346 18.6371C11.6581 17.8985 11.7504 17.1999 12.4041 16.6972C12.4744 16.6467 12.5308 16.5786 12.5678 16.4994C12.6048 16.4202 12.6212 16.3325 12.6153 16.245C12.6065 15.8674 12.6102 15.4868 12.6102 15.1062Z" fill="#7C3AED"/>
</g>
<defs>
<clipPath id="clip0_40004329_58044">
<rect width="27" height="24" fill="white"/>
</clipPath>
</defs>
</svg>
