<svg width="394" height="246" viewBox="0 0 394 246" fill="none" xmlns="http://www.w3.org/2000/svg">
<g clip-path="url(#clip0_40000407_66646)">
<rect x="75" width="313" height="178" rx="9" fill="white"/>
<g clip-path="url(#clip1_40000407_66646)">
<path d="M385.569 0.146484H84.2354C81.7351 0.149218 79.3379 1.1436 77.5699 2.91146C75.8019 4.67931 74.8074 7.07626 74.8047 9.57638V168.537C74.8074 171.038 75.8019 173.435 77.5699 175.202C79.3379 176.97 81.7351 177.965 84.2354 177.967H385.569C388.07 177.965 390.467 176.97 392.235 175.202C394.003 173.435 394.997 171.038 395 168.537V9.57638C394.997 7.07626 394.003 4.67931 392.235 2.91146C390.467 1.1436 388.07 0.149218 385.569 0.146484ZM394.102 168.537C394.1 170.8 393.2 172.969 391.601 174.568C390.001 176.168 387.832 177.067 385.569 177.069H84.2354C81.9731 177.067 79.804 176.168 78.2042 174.568C76.6045 172.969 75.7049 170.8 75.7029 168.537V9.57638C75.7049 7.31423 76.6045 5.14532 78.2042 3.54574C79.804 1.94616 81.9731 1.04662 84.2354 1.04457H385.569C387.832 1.04662 390.001 1.94616 391.601 3.54574C393.2 5.14532 394.1 7.31423 394.102 9.57638V168.537Z" fill="#D4D4D8"/>
<path d="M370.749 25.9079H99.0546C98.9354 25.9079 98.8212 25.8605 98.737 25.7763C98.6528 25.6921 98.6055 25.5779 98.6055 25.4588C98.6055 25.3397 98.6528 25.2255 98.737 25.1413C98.8212 25.0571 98.9354 25.0098 99.0546 25.0098H370.749C370.868 25.0098 370.982 25.0571 371.067 25.1413C371.151 25.2255 371.198 25.3397 371.198 25.4588C371.198 25.5779 371.151 25.6921 371.067 25.7763C370.982 25.8605 370.868 25.9079 370.749 25.9079Z" fill="#27272A"/>
<path d="M175.848 158.659C175.728 158.659 175.614 158.611 175.53 158.527C175.446 158.443 175.398 158.329 175.398 158.209V10.4744C175.398 10.3553 175.446 10.2411 175.53 10.1569C175.614 10.0727 175.728 10.0254 175.848 10.0254C175.967 10.0254 176.081 10.0727 176.165 10.1569C176.249 10.2411 176.297 10.3553 176.297 10.4744V158.209C176.297 158.329 176.249 158.443 176.165 158.527C176.081 158.611 175.967 158.659 175.848 158.659Z" fill="#27272A"/>
<path d="M243.659 158.659C243.54 158.659 243.426 158.611 243.342 158.527C243.257 158.443 243.21 158.329 243.21 158.209V10.4744C243.21 10.3553 243.257 10.2411 243.342 10.1569C243.426 10.0727 243.54 10.0254 243.659 10.0254C243.778 10.0254 243.892 10.0727 243.977 10.1569C244.061 10.2411 244.108 10.3553 244.108 10.4744V158.209C244.108 158.329 244.061 158.443 243.977 158.527C243.892 158.611 243.778 158.659 243.659 158.659Z" fill="#27272A"/>
<path d="M311.471 158.659C311.351 158.659 311.237 158.611 311.153 158.527C311.069 158.443 311.021 158.329 311.021 158.209V10.4744C311.021 10.3553 311.069 10.2411 311.153 10.1569C311.237 10.0727 311.351 10.0254 311.471 10.0254C311.59 10.0254 311.704 10.0727 311.788 10.1569C311.872 10.2411 311.92 10.3553 311.92 10.4744V158.209C311.92 158.329 311.872 158.443 311.788 158.527C311.704 158.611 311.59 158.659 311.471 158.659Z" fill="#27272A"/>
<path d="M160.763 48H118.237C116.849 47.9996 115.517 47.8539 114.536 47.5949C113.554 47.336 113.002 46.9848 113 46.6186V33.3814C113.002 33.0152 113.554 32.664 114.536 32.4051C115.517 32.1461 116.849 32.0004 118.237 32H160.763C162.151 32.0004 163.483 32.1461 164.464 32.4051C165.446 32.664 165.998 33.0152 166 33.3814V46.6186C165.998 46.9848 165.446 47.336 164.464 47.5949C163.483 47.8539 162.151 47.9996 160.763 48Z" fill="#E4E4E7"/>
<path d="M229.763 48H187.237C185.849 47.9996 184.517 47.8539 183.536 47.5949C182.554 47.336 182.002 46.9848 182 46.6186V33.3814C182.002 33.0152 182.554 32.664 183.536 32.4051C184.517 32.1461 185.849 32.0004 187.237 32H229.763C231.151 32.0004 232.483 32.1461 233.464 32.4051C234.446 32.664 234.998 33.0152 235 33.3814V46.6186C234.998 46.9848 234.446 47.336 233.464 47.5949C232.483 47.8539 231.151 47.9996 229.763 48Z" fill="#8B5CF6"/>
<path d="M229.763 155H187.237C185.849 155 184.517 154.863 183.536 154.62C182.554 154.377 182.002 154.048 182 153.705V141.295C182.002 140.952 182.554 140.623 183.536 140.38C184.517 140.137 185.849 140 187.237 140H229.763C231.151 140 232.483 140.137 233.464 140.38C234.446 140.623 234.998 140.952 235 141.295V153.705C234.998 154.048 234.446 154.377 233.464 154.62C232.483 154.863 231.151 155 229.763 155Z" fill="#F87171"/>
<path d="M297.763 138H255.237C253.849 138 252.517 137.854 251.536 137.595C250.554 137.336 250.002 136.985 250 136.619V123.381C250.002 123.015 250.554 122.664 251.536 122.405C252.517 122.146 253.849 122 255.237 122H297.763C299.151 122 300.483 122.146 301.464 122.405C302.446 122.664 302.998 123.015 303 123.381V136.619C302.998 136.985 302.446 137.336 301.464 137.595C300.483 137.854 299.151 138 297.763 138Z" fill="#E4E4E7"/>
<path d="M297.763 48H255.237C253.849 47.9996 252.517 47.8539 251.536 47.5949C250.554 47.336 250.002 46.9848 250 46.6186V33.3814C250.002 33.0152 250.554 32.664 251.536 32.4051C252.517 32.1461 253.849 32.0004 255.237 32H297.763C299.151 32.0004 300.483 32.1461 301.464 32.4051C302.446 32.664 302.998 33.0152 303 33.3814V46.6186C302.998 46.9848 302.446 47.336 301.464 47.5949C300.483 47.8539 299.151 47.9996 297.763 48Z" fill="#FDBA74"/>
<path d="M363.763 48H321.237C319.849 47.9996 318.517 47.8539 317.536 47.5949C316.554 47.336 316.002 46.9848 316 46.6186V33.3814C316.002 33.0152 316.554 32.664 317.536 32.4051C318.517 32.1461 319.849 32.0004 321.237 32H363.763C365.151 32.0004 366.483 32.1461 367.464 32.4051C368.446 32.664 368.998 33.0152 369 33.3814V46.6186C368.998 46.9848 368.446 47.336 367.464 47.5949C366.483 47.8539 365.151 47.9996 363.763 48Z" fill="#4ADE80"/>
<path d="M178.763 134H136.237C134.849 134 133.517 133.863 132.536 133.62C131.554 133.377 131.002 133.048 131 132.705V120.295C131.002 119.952 131.554 119.623 132.536 119.38C133.517 119.137 134.849 119 136.237 119H178.763C180.151 119 181.483 119.137 182.464 119.38C183.446 119.623 183.998 119.952 184 120.295V132.705C183.998 133.048 183.446 133.377 182.464 133.62C181.483 133.863 180.151 134 178.763 134Z" fill="#F87171"/>
<path d="M160.763 68H118.237C116.849 67.9996 115.517 67.8539 114.536 67.5949C113.554 67.336 113.002 66.9848 113 66.6186V53.3814C113.002 53.0152 113.554 52.664 114.536 52.4051C115.517 52.1461 116.849 52.0004 118.237 52H160.763C162.151 52.0004 163.483 52.1461 164.464 52.4051C165.446 52.664 165.998 53.0152 166 53.3814V66.6186C165.998 66.9848 165.446 67.336 164.464 67.5949C163.483 67.8539 162.151 67.9996 160.763 68Z" fill="#E4E4E7"/>
<path d="M150.25 18.5572H124.653C124.176 18.5572 123.719 18.3679 123.383 18.0311C123.046 17.6943 122.856 17.2374 122.856 16.761C122.856 16.2846 123.046 15.8278 123.383 15.4909C123.719 15.1541 124.176 14.9648 124.653 14.9648H150.25C150.727 14.9648 151.184 15.1541 151.521 15.4909C151.858 15.8278 152.047 16.2846 152.047 16.761C152.047 17.2374 151.858 17.6943 151.521 18.0311C151.184 18.3679 150.727 18.5572 150.25 18.5572Z" fill="#D4D4D8"/>
<path d="M222.552 18.5572H196.955C196.478 18.5572 196.021 18.3679 195.684 18.0311C195.347 17.6943 195.158 17.2374 195.158 16.761C195.158 16.2846 195.347 15.8278 195.684 15.4909C196.021 15.1541 196.478 14.9648 196.955 14.9648H222.552C223.029 14.9648 223.486 15.1541 223.822 15.4909C224.159 15.8278 224.349 16.2846 224.349 16.761C224.349 17.2374 224.159 17.6943 223.822 18.0311C223.486 18.3679 223.029 18.5572 222.552 18.5572Z" fill="#D4D4D8"/>
<path d="M290.364 18.5572H264.766C264.29 18.5572 263.833 18.3679 263.496 18.0311C263.159 17.6943 262.97 17.2374 262.97 16.761C262.97 16.2846 263.159 15.8278 263.496 15.4909C263.833 15.1541 264.29 14.9648 264.766 14.9648H290.364C290.84 14.9648 291.297 15.1541 291.634 15.4909C291.971 15.8278 292.16 16.2846 292.16 16.761C292.16 17.2374 291.971 17.6943 291.634 18.0311C291.297 18.3679 290.84 18.5572 290.364 18.5572Z" fill="#D4D4D8"/>
<path d="M353.684 18.5572H328.086C327.61 18.5572 327.153 18.3679 326.816 18.0311C326.479 17.6943 326.29 17.2374 326.29 16.761C326.29 16.2846 326.479 15.8278 326.816 15.4909C327.153 15.1541 327.61 14.9648 328.086 14.9648H353.684C354.16 14.9648 354.617 15.1541 354.954 15.4909C355.291 15.8278 355.48 16.2846 355.48 16.761C355.48 17.2374 355.291 17.6943 354.954 18.0311C354.617 18.3679 354.16 18.5572 353.684 18.5572Z" fill="#D4D4D8"/>
</g>
</g>
<path d="M92.5915 159.987C92.035 159.923 91.4971 159.715 91.0159 159.378C90.5346 159.041 90.1217 158.583 89.8062 158.037C89.4907 157.491 89.2802 156.87 89.1896 156.217C89.0991 155.564 89.1306 154.896 89.282 154.259L79.5312 143.522L84.6867 141.975L94.275 151.174C95.1625 151.546 95.9039 152.29 96.3587 153.265C96.8135 154.24 96.95 155.379 96.7425 156.465C96.535 157.552 95.9978 158.51 95.2328 159.159C94.4677 159.808 93.5279 160.103 92.5915 159.987Z" fill="#FECACA"/>
<path d="M106.055 239.345H110.719L112.938 218.067H106.055L106.055 239.345Z" fill="#FECACA"/>
<path d="M119.714 244.466L105.057 244.467L105.057 237.768L114.051 237.768C115.553 237.768 116.993 238.474 118.055 239.73C119.117 240.986 119.714 242.69 119.714 244.466Z" fill="#3F3F46"/>
<path d="M74.0791 235.362L78.5861 236.781L85.3576 216.894L78.7063 214.8L74.0791 235.362Z" fill="#FECACA"/>
<path d="M86.1641 244.468L72.0002 240.009L73.4568 233.535L82.1483 236.272C83.5997 236.729 84.8381 237.849 85.5912 239.386C86.3443 240.923 86.5504 242.751 86.1641 244.468Z" fill="#3F3F46"/>
<path d="M111.974 235.316H104.857C104.408 235.318 103.974 235.121 103.641 234.763C103.309 234.406 103.101 233.914 103.059 233.384L98.7395 180.319C98.7078 179.929 98.5628 179.565 98.3292 179.289C98.0956 179.012 97.788 178.84 97.4589 178.802C97.1299 178.764 96.8 178.862 96.5255 179.08C96.2511 179.298 96.0493 179.622 95.9545 179.997L83.4114 229.583C83.2788 230.11 82.9792 230.557 82.5752 230.829C82.1713 231.101 81.6941 231.178 81.2432 231.044L74.623 229.086C74.392 229.018 74.1746 228.896 73.9835 228.728C73.7923 228.56 73.6312 228.349 73.5093 228.107C73.3874 227.865 73.3072 227.597 73.2733 227.318C73.2394 227.039 73.2524 226.755 73.3117 226.482C73.4198 225.982 84.1191 176.523 84.2125 176.014C86.6367 154.88 89.537 149.217 91.0951 146.175C91.2241 145.923 91.3426 145.691 91.4493 145.472C91.5829 145.199 92.4051 142.483 92.9266 140.719C92.9944 140.432 93.1117 140.165 93.2711 139.934C93.4305 139.703 93.6286 139.514 93.8529 139.379C100.4 135.418 108.06 138.16 110.252 139.095C110.615 139.246 110.927 139.533 111.141 139.911C117.716 151.643 114.489 219.777 113.776 233.317C113.746 233.858 113.543 234.366 113.209 234.738C112.874 235.109 112.432 235.316 111.974 235.316Z" fill="#3F3F46"/>
<path d="M93.6086 100.904C98.7687 100.904 102.952 95.9557 102.952 89.852C102.952 83.7483 98.7687 78.8003 93.6086 78.8003C88.4486 78.8003 84.2656 83.7483 84.2656 89.852C84.2656 95.9557 88.4486 100.904 93.6086 100.904Z" fill="#FECACA"/>
<path d="M92.6187 142.864L92.5515 142.787C92.4256 142.643 79.9772 128.217 81.5882 114.878C82.2772 109.173 86.1798 105.527 92.8738 104.335C95.3331 103.903 97.8415 104.536 99.9381 106.116C102.035 107.697 103.578 110.12 104.286 112.939L110.905 139.705L92.6187 142.864Z" fill="#D4D4D8"/>
<path d="M86.2472 153.125L77.3769 142.699C76.7704 141.982 76.33 141.092 76.0982 140.116C75.8664 139.139 75.8509 138.109 76.0532 137.123L80.3474 116.461C80.476 115.842 80.7107 115.26 81.0369 114.753C81.3631 114.245 81.7739 113.822 82.2439 113.51C82.7139 113.198 83.233 113.003 83.7692 112.938C84.3054 112.873 84.8472 112.938 85.361 113.131C86.3405 113.504 87.1586 114.314 87.642 115.389C88.1255 116.463 88.2364 117.718 87.9512 118.888L83.4303 137.065L90.741 146.351L86.2472 153.125Z" fill="#D4D4D8"/>
<path d="M133.825 117.542C133.59 118.143 133.247 118.675 132.82 119.102C132.393 119.528 131.891 119.839 131.352 120.012C130.812 120.185 130.247 120.216 129.696 120.102C129.145 119.989 128.622 119.733 128.163 119.355L116.321 126.615L116.845 120.448L127.343 112.763C127.931 111.894 128.769 111.31 129.697 111.123C130.625 110.936 131.579 111.158 132.378 111.747C133.177 112.336 133.766 113.251 134.032 114.319C134.299 115.387 134.225 116.534 133.825 117.542Z" fill="#FECACA"/>
<path d="M126.87 122.133L115.326 128.033C114.558 128.423 113.718 128.572 112.886 128.467C112.055 128.361 111.261 128.005 110.58 127.431L95.9006 114.99C95.4625 114.618 95.0934 114.145 94.8163 113.598C94.5392 113.051 94.36 112.443 94.2896 111.811C94.2192 111.179 94.2592 110.536 94.4072 109.923C94.5552 109.31 94.8079 108.739 95.1498 108.247C95.8068 107.31 96.7464 106.712 97.7695 106.58C98.7926 106.449 99.8189 106.793 100.631 107.541L113.218 119.259L123.222 114.681L126.87 122.133Z" fill="#D4D4D8"/>
<path d="M95.1577 93.3928C96.3103 91.6845 98.4637 91.5927 100.047 90.4658C102.121 88.9898 102.978 85.6913 102.31 82.9397C101.642 80.188 99.6706 78.0435 97.4109 77.0179C95.1512 75.9923 92.6371 75.9796 90.2533 76.4754C86.7041 77.2136 83.2098 79.173 81.0451 82.581C78.8805 85.989 78.3296 90.9801 80.2914 94.5558C81.193 96.1993 82.5849 97.5558 82.9449 99.4682C83.4174 101.979 81.9287 104.4 80.3337 106.148C78.5166 108.14 76.4319 109.808 74.84 112.053C73.2481 114.299 72.1865 117.366 72.9129 120.167C73.5215 122.515 75.2926 124.244 77.2348 125.11C79.1769 125.976 81.2922 126.101 83.3673 126.149C85.3824 126.196 87.5227 126.138 89.2202 124.852C91.0374 123.477 92.0077 120.866 92.0793 118.316C92.151 115.765 91.4304 113.266 90.4647 110.984C89.8891 109.623 89.2198 108.305 88.8373 106.853C88.4548 105.4 88.3885 103.752 89.001 102.415C89.6449 101.009 90.9476 100.161 92.2741 99.8526C92.343 99.8366 92.4159 99.8223 92.4922 99.8096C92.8696 99.7517 93.2331 99.6038 93.5608 99.375C93.8886 99.1461 94.1736 98.841 94.3988 98.4781C94.6241 98.1152 94.7847 97.7021 94.8711 97.2637C94.9574 96.8253 94.9677 96.3707 94.9013 95.9274C94.7502 94.931 94.7633 93.9773 95.1577 93.3928Z" fill="#3F3F46"/>
<path d="M285.516 238.899H280.852L278.634 217.621L285.517 217.621L285.516 238.899Z" fill="#FECACA"/>
<path d="M277.521 237.322H286.516V244.021H271.858C271.858 243.141 272.005 242.27 272.289 241.457C272.574 240.645 272.991 239.906 273.517 239.284C274.043 238.662 274.667 238.169 275.354 237.832C276.041 237.496 276.778 237.322 277.521 237.322Z" fill="#3F3F46"/>
<path d="M319.354 232.649L315.113 234.941L305.62 216.677L311.881 213.294L319.354 232.649Z" fill="#FECACA"/>
<path d="M311.529 235.145L319.71 230.725L322.063 236.818L308.731 244.021C308.422 243.221 308.249 242.356 308.222 241.477C308.196 240.598 308.316 239.721 308.576 238.897C308.836 238.073 309.23 237.317 309.737 236.674C310.244 236.03 310.853 235.51 311.529 235.145Z" fill="#3F3F46"/>
<path d="M305.774 167.154C306.221 166.756 306.589 166.247 306.851 165.663C307.114 165.079 307.265 164.434 307.294 163.773C307.323 163.113 307.229 162.453 307.019 161.839C306.809 161.226 306.488 160.675 306.079 160.225L311.561 145.511L304.596 146.907L300.458 160.666C299.864 161.529 299.558 162.621 299.599 163.734C299.64 164.847 300.025 165.903 300.68 166.703C301.335 167.502 302.216 167.99 303.155 168.073C304.093 168.156 305.026 167.829 305.774 167.154Z" fill="#FECACA"/>
<path d="M285.219 233.288H280.764C280.331 233.286 279.916 233.092 279.599 232.744C279.283 232.396 279.089 231.92 279.056 231.41L276.627 154.664C276.609 154.37 276.645 154.074 276.733 153.799C276.822 153.523 276.96 153.273 277.139 153.068C277.317 152.862 277.531 152.704 277.766 152.607C278.002 152.509 278.252 152.473 278.5 152.502L304.267 155.739C304.684 155.787 305.072 156.015 305.357 156.379C305.642 156.744 305.804 157.219 305.812 157.716L306.352 191.569C306.355 191.753 306.385 191.935 306.441 192.106L317.01 224.528C317.092 224.778 317.131 225.045 317.124 225.314C317.118 225.582 317.066 225.846 316.973 226.091C316.879 226.335 316.745 226.556 316.579 226.738C316.413 226.921 316.218 227.063 316.005 227.156L311.49 229.124C311.098 229.294 310.667 229.29 310.277 229.11C309.888 228.931 309.567 228.589 309.376 228.15L296.392 198.286C296.321 198.123 296.27 197.95 296.238 197.772L294.02 185.13C293.956 184.764 293.783 184.436 293.533 184.207C293.283 183.977 292.972 183.86 292.656 183.877C292.34 183.894 292.039 184.044 291.808 184.299C291.577 184.554 291.43 184.899 291.394 185.271L286.919 231.493C286.872 231.987 286.672 232.443 286.358 232.774C286.045 233.105 285.639 233.288 285.219 233.288Z" fill="#3F3F46"/>
<path d="M287.438 94.6552C292.598 94.6552 296.781 89.7072 296.781 83.6035C296.781 77.4998 292.598 72.5518 287.438 72.5518C282.278 72.5518 278.095 77.4998 278.095 83.6035C278.095 89.7072 282.278 94.6552 287.438 94.6552Z" fill="#FECACA"/>
<path d="M293.845 161.681C287.509 161.598 281.324 159.382 276.015 155.292L275.924 155.218L275.933 155.088L279.507 105.854C279.63 104.183 280.261 102.622 281.281 101.459C282.302 100.296 283.645 99.6095 285.06 99.5265C289.692 99.2747 295.914 99.5922 299.244 102.526C304.277 106.96 306.703 113.638 305.899 120.846C304.233 135.793 306.121 155.956 306.341 158.206L306.357 158.368L306.232 158.437C302.352 160.572 298.125 161.679 293.845 161.681Z" fill="#8B5CF6"/>
<path d="M306.298 158.29C306.035 158.289 305.774 158.224 305.533 158.099C305.292 157.973 305.076 157.79 304.898 157.56L302.854 154.923C302.633 154.636 302.479 154.287 302.405 153.909C302.331 153.531 302.34 153.137 302.432 152.765L307.092 134.108L300.002 116.494C299.671 115.67 299.59 114.735 299.772 113.849C299.933 113.07 300.29 112.368 300.795 111.834C301.3 111.3 301.931 110.96 302.603 110.858C303.275 110.757 303.957 110.898 304.559 111.265C305.162 111.631 305.657 112.205 305.978 112.911L315.6 131.379C315.991 132.128 316.22 132.979 316.268 133.858C316.316 134.736 316.18 135.615 315.874 136.417L308.034 156.965C307.905 157.305 307.706 157.601 307.456 157.827C307.206 158.054 306.912 158.203 306.601 158.261C306.501 158.28 306.399 158.29 306.298 158.29Z" fill="#8B5CF6"/>
<path d="M240.442 122.65C240.89 123.044 241.407 123.318 241.955 123.451C242.502 123.584 243.068 123.574 243.612 123.42C244.156 123.267 244.665 122.974 245.103 122.563C245.541 122.152 245.897 121.632 246.147 121.04L259.628 123.108L256.53 115.599L244.203 114.786C243.335 114.356 242.363 114.317 241.472 114.677C240.582 115.038 239.833 115.772 239.37 116.742C238.906 117.711 238.759 118.848 238.957 119.937C239.154 121.025 239.683 121.991 240.442 122.65Z" fill="#FECACA"/>
<path d="M270.156 126.751C269.921 126.751 269.687 126.732 269.454 126.694L248.247 123.214C247.9 123.158 247.571 123 247.289 122.756C247.006 122.512 246.78 122.188 246.63 121.814C246.581 121.694 246.541 121.569 246.509 121.441C246.427 121.109 246.404 120.76 246.441 120.417C246.479 120.074 246.576 119.744 246.727 119.447L248.482 116.005C248.671 115.637 248.937 115.333 249.254 115.121C249.57 114.91 249.928 114.798 250.292 114.797H250.294L268.78 114.822L282.587 100.19C283.229 99.5108 284.049 99.1137 284.91 99.0653C285.665 99.0239 286.414 99.2544 287.056 99.7263C287.699 100.198 288.206 100.89 288.509 101.709C288.813 102.528 288.9 103.437 288.758 104.316C288.616 105.195 288.252 106.002 287.714 106.632L273.938 124.756C273.461 125.384 272.878 125.886 272.227 126.23C271.575 126.573 270.87 126.751 270.156 126.751Z" fill="#8B5CF6"/>
<path d="M288.5 93.4357C289.353 91.0983 290.076 87.9854 288.438 86.3328C287.488 85.3742 286.12 85.3723 284.876 85.253C281.369 84.917 277.76 83.0087 276.046 79.3748C274.332 75.7409 275.29 70.3374 278.523 68.6979C280.702 67.5928 283.201 68.3456 285.482 69.1108L292.331 71.4084C294.367 72.091 296.503 72.8439 297.969 74.6488C300.305 77.5274 300.131 82.3935 298.275 85.7262C296.419 89.0588 293.624 92.5346 290.424 93.7999L288.5 93.4357Z" fill="#3F3F46"/>
<path d="M393.365 246H0.635212C0.551881 246 0.469325 245.981 0.392268 245.944C0.315211 245.906 0.245176 245.851 0.186167 245.782C0.127158 245.712 0.0803374 245.63 0.0483923 245.539C0.0164472 245.448 0 245.35 0 245.252C0 245.154 0.0164472 245.056 0.0483923 244.965C0.0803374 244.874 0.127158 244.792 0.186167 244.722C0.245176 244.653 0.315211 244.598 0.392268 244.56C0.469325 244.523 0.551881 244.504 0.635212 244.504H393.365C393.448 244.504 393.531 244.523 393.608 244.56C393.685 244.598 393.755 244.653 393.814 244.722C393.873 244.792 393.92 244.874 393.952 244.965C393.984 245.056 394 245.154 394 245.252C394 245.35 393.984 245.448 393.952 245.539C393.92 245.63 393.873 245.712 393.814 245.782C393.755 245.851 393.685 245.906 393.608 245.944C393.531 245.981 393.448 246 393.365 246Z" fill="#18181B"/>
<defs>
<clipPath id="clip0_40000407_66646">
<rect x="75" width="313" height="178" rx="9" fill="white"/>
</clipPath>
<clipPath id="clip1_40000407_66646">
<rect width="369" height="260" fill="white" transform="translate(26 -25)"/>
</clipPath>
</defs>
</svg>
