<svg width="17" height="24" viewBox="0 0 17 24" fill="none" xmlns="http://www.w3.org/2000/svg">
<path d="M0.00310283 14.2176C0.00310283 12.1174 0.00310283 10.0106 0.00310283 7.9104C0.0418866 2.8256 5.31649 -1.08228 10.2032 0.270197C11.9734 0.73215 13.5387 1.77722 14.6494 3.23864C15.7601 4.70005 16.3521 6.4936 16.3311 8.33305C16.2839 10.25 15.5707 12.0898 14.3155 13.533C13.0604 14.9761 11.3424 15.9316 9.45989 16.2334C7.24275 16.6625 7.02297 16.4934 7.02297 14.2827C7.02297 13.5219 7.07469 12.7481 7.02297 11.9938C6.97126 11.2396 7.11993 10.8494 8.02489 10.973C8.53249 11.035 9.04649 10.9321 9.49187 10.6794C9.93725 10.4268 10.2907 10.0375 10.5006 9.56849C10.7651 9.13132 10.8995 8.6271 10.8881 8.11547C10.8766 7.60384 10.7197 7.10622 10.436 6.68147C10.1115 6.18834 9.63706 5.81415 9.08359 5.61489C8.53011 5.41563 7.92737 5.40201 7.36556 5.57608C6.84113 5.70641 6.3758 6.01103 6.04496 6.44061C5.71412 6.87018 5.53715 7.39954 5.54272 7.94291C5.54272 12.0524 5.54272 16.1618 5.54272 20.2973C5.55586 20.71 5.53641 21.1231 5.48455 21.5327C5.45363 21.891 5.35286 22.2396 5.18799 22.5586C5.02311 22.8777 4.79737 23.1609 4.52364 23.3922C4.24992 23.6234 3.93359 23.7982 3.59271 23.9065C3.25183 24.0147 2.89309 24.0544 2.53698 24.0231C1.83536 23.954 1.18643 23.6181 0.722708 23.084C0.258991 22.5498 0.0154725 21.8577 0.0418863 21.1491C-0.0162894 18.8343 0.00310283 16.513 0.00310283 14.2176Z" fill="#6D28D9"/>
</svg>
