<svg width="13" height="17" viewBox="0 0 13 17" fill="none" xmlns="http://www.w3.org/2000/svg">
<path d="M-2.49982e-05 8.11886C0.0128994 6.97756 0.262184 5.85149 0.731923 4.81252C1.20166 3.77354 1.88154 2.84448 2.72818 2.08459C3.57482 1.32471 4.56962 0.750691 5.64912 0.399173C6.72862 0.047655 7.86911 -0.0736478 8.99782 0.0430042C9.97464 0.17016 10.9145 0.50008 11.7579 1.01185C12.191 1.25893 12.3462 1.49952 11.8872 1.94818C10.9848 2.84647 10.3031 3.94409 9.89631 5.15381C9.74118 5.58297 9.64422 5.80404 9.04307 5.64799C8.52992 5.46265 7.97167 5.44522 7.44809 5.59821C6.92451 5.75119 6.4624 6.06675 6.12782 6.49979C5.77784 6.89855 5.55993 7.39702 5.50433 7.926C5.44873 8.45499 5.5582 8.98827 5.81755 9.45184C6.05375 9.9467 6.43675 10.3557 6.91374 10.6224C7.39072 10.8891 7.9382 11.0003 8.4807 10.9409C9.1271 10.8823 9.37273 11.0514 9.34688 11.7537C9.2887 13.0541 9.34688 14.3026 9.34688 15.577C9.34688 15.9932 9.34688 16.2728 8.75865 16.3248C7.63579 16.4181 6.50593 16.2745 5.4414 15.9033C4.37687 15.532 3.40113 14.9413 2.57665 14.1688C1.75216 13.3964 1.09711 12.4592 0.653409 11.4175C0.209711 10.3757 -0.0128494 9.25216 -2.49982e-05 8.11886Z" fill="#A78BFA"/>
</svg>
