<svg width="122" height="82" viewBox="0 0 122 82" fill="none" xmlns="http://www.w3.org/2000/svg">
<path d="M58.6105 61.2517L18.6726 71.5361C17.3178 71.8833 15.8807 71.679 14.6764 70.9679C13.4721 70.2569 12.5991 69.0971 12.2488 67.7432L0.17122 20.8394C-0.175994 19.4847 0.0283409 18.0475 0.739398 16.8432C1.45045 15.639 2.61016 14.7659 3.96411 14.4156L41.1198 4.84766L50.6292 9.10486L62.4034 54.8278C62.7506 56.1825 62.5463 57.6197 61.8353 58.824C61.1242 60.0283 59.9645 60.9014 58.6105 61.2517Z" fill="#F2F2F2"/>
<path d="M4.34517 15.8887C3.381 16.1381 2.55513 16.7598 2.04876 17.6174C1.54239 18.475 1.39687 19.4984 1.64411 20.4631L13.7225 67.3671C13.9719 68.3313 14.5936 69.1572 15.4512 69.6635C16.3088 70.1699 17.3322 70.3154 18.2969 70.0682L58.2348 59.7839C59.199 59.5345 60.0249 58.9128 60.5313 58.0552C61.0376 57.1976 61.1832 56.1742 60.9359 55.2094L49.3441 10.1946L40.9865 6.45312L4.34517 15.8887Z" fill="white"/>
<path d="M50.5297 9.3504L44.3487 10.9421C43.8975 11.0583 43.4186 10.9904 43.0174 10.7535C42.6161 10.5166 42.3255 10.13 42.2093 9.6788L41.0337 5.11364C41.0286 5.09366 41.0292 5.07265 41.0355 5.053C41.0417 5.03336 41.0534 5.01587 41.0692 5.00255C41.0849 4.98923 41.1041 4.98061 41.1245 4.97768C41.1449 4.97475 41.1657 4.97762 41.1846 4.98597L50.5469 9.14372C50.5677 9.15298 50.5852 9.1685 50.5968 9.18811C50.6084 9.20773 50.6136 9.23047 50.6117 9.25318C50.6098 9.27589 50.6009 9.29745 50.5862 9.31487C50.5715 9.33229 50.5517 9.34471 50.5297 9.3504Z" fill="#F2F2F2"/>
<path d="M47.2827 49.4022L29.0995 54.085C28.8744 54.1416 28.636 54.1068 28.4365 53.9882C28.237 53.8696 28.0925 53.6769 28.0346 53.4521C27.9767 53.2273 28.0101 52.9888 28.1276 52.7886C28.2451 52.5884 28.437 52.4428 28.6614 52.3836L46.8446 47.7009C46.9566 47.6714 47.0733 47.6643 47.188 47.68C47.3027 47.6958 47.4131 47.7341 47.513 47.7926C47.6128 47.8512 47.7001 47.929 47.7698 48.0214C47.8395 48.1138 47.8903 48.2192 47.9191 48.3313C47.948 48.4434 47.9544 48.5601 47.938 48.6747C47.9216 48.7893 47.8827 48.8996 47.8236 48.9991C47.7645 49.0986 47.6862 49.1855 47.5934 49.2547C47.5006 49.3238 47.395 49.374 47.2827 49.4022Z" fill="#CCCCCC"/>
<path d="M51.523 51.3724L29.8308 56.9585C29.7188 56.988 29.6022 56.9951 29.4875 56.9793C29.3728 56.9636 29.2623 56.9253 29.1624 56.8667C29.0626 56.8081 28.9753 56.7304 28.9056 56.6379C28.8359 56.5455 28.7851 56.4402 28.7563 56.3281C28.7274 56.216 28.721 56.0992 28.7374 55.9846C28.7538 55.87 28.7927 55.7598 28.8518 55.6603C28.9109 55.5607 28.9892 55.4739 29.082 55.4047C29.1748 55.3355 29.2804 55.2854 29.3927 55.2571L51.0849 49.6711C51.31 49.6144 51.5484 49.6492 51.7479 49.7678C51.9475 49.8864 52.092 50.0791 52.1498 50.3039C52.2077 50.5287 52.1743 50.7673 52.0568 50.9675C51.9394 51.1677 51.7474 51.3133 51.523 51.3724Z" fill="#CCCCCC"/>
<path d="M21.6722 59.7253C23.3869 59.7253 24.777 58.3352 24.777 56.6204C24.777 54.9057 23.3869 53.5156 21.6722 53.5156C19.9575 53.5156 18.5674 54.9057 18.5674 56.6204C18.5674 58.3352 19.9575 59.7253 21.6722 59.7253Z" fill="#8B5CF6"/>
<path d="M45.346 41.2772L21.1968 47.4936C20.4989 47.6724 19.7586 47.5671 19.1382 47.2007C18.5178 46.8343 18.0681 46.2368 17.8878 45.5393L12.8272 25.8795C12.6485 25.1816 12.754 24.4414 13.1203 23.8212C13.4867 23.201 14.084 22.7514 14.7814 22.571L38.9305 16.3547C39.6284 16.1758 40.3688 16.2812 40.9891 16.6475C41.6095 17.0139 42.0592 17.6114 42.2395 18.3089L47.3003 37.9688C47.4789 38.6666 47.3735 39.4068 47.0072 40.027C46.6408 40.6473 46.0434 41.0969 45.346 41.2772Z" fill="white"/>
<path d="M45.346 41.2772L21.1968 47.4936C20.4989 47.6724 19.7586 47.5671 19.1382 47.2007C18.5178 46.8343 18.0681 46.2368 17.8878 45.5393L12.8272 25.8795C12.6485 25.1816 12.754 24.4414 13.1203 23.8212C13.4867 23.201 14.084 22.7514 14.7814 22.571L38.9305 16.3547C39.6284 16.1758 40.3688 16.2812 40.9891 16.6475C41.6095 17.0139 42.0592 17.6114 42.2395 18.3089L47.3003 37.9688C47.4789 38.6666 47.3735 39.4068 47.0072 40.027C46.6408 40.6473 46.0434 41.0969 45.346 41.2772ZM14.8611 22.88C14.2457 23.0394 13.7187 23.4362 13.3956 23.9836C13.0725 24.5309 12.9796 25.1841 13.1374 25.7998L18.1982 45.4597C18.3575 46.075 18.7543 46.6021 19.3017 46.9252C19.8491 47.2483 20.5023 47.3411 21.118 47.1833L45.2666 40.9676C45.8819 40.8083 46.4089 40.4114 46.7321 39.8641C47.0552 39.3167 47.148 38.6635 46.9902 38.0478L41.9299 18.3879C41.7706 17.7726 41.3737 17.2456 40.8264 16.9225C40.279 16.5993 39.6258 16.5065 39.0101 16.6643L14.8611 22.88Z" fill="#E6E6E6"/>
<path d="M37.7103 22.9663L25.523 26.1036C25.4164 26.1333 25.3026 26.1215 25.2044 26.0705C25.1062 26.0196 25.0311 25.9333 24.9941 25.829C24.9769 25.7745 24.971 25.7171 24.9767 25.6603C24.9825 25.6034 24.9997 25.5483 25.0274 25.4984C25.0551 25.4484 25.0928 25.4046 25.138 25.3697C25.1832 25.3348 25.235 25.3094 25.2903 25.2952L37.6966 22.1016C38.1978 22.3555 38.0659 22.8749 37.7105 22.9664L37.7103 22.9663Z" fill="#F2F2F2"/>
<path d="M38.2533 25.103L26.0659 28.2403C25.9594 28.27 25.8455 28.2582 25.7474 28.2073C25.6492 28.1563 25.5741 28.07 25.5371 27.9657C25.5199 27.9113 25.514 27.8538 25.5197 27.797C25.5254 27.7401 25.5427 27.6851 25.5704 27.6351C25.5981 27.5851 25.6357 27.5414 25.6809 27.5064C25.7261 27.4715 25.778 27.4461 25.8333 27.4319L38.2396 24.2383C38.7408 24.4922 38.6089 25.0116 38.2535 25.1031L38.2533 25.103Z" fill="#F2F2F2"/>
<path d="M23.7441 30.136L20.0246 31.0931C19.9644 31.1087 19.9018 31.1121 19.8403 31.1034C19.7788 31.0947 19.7196 31.074 19.6661 31.0424C19.6127 31.0108 19.5659 30.969 19.5286 30.9193C19.4913 30.8697 19.4641 30.8132 19.4486 30.753L18.3187 26.3646C18.3032 26.3045 18.2997 26.2418 18.3084 26.1803C18.3171 26.1188 18.3378 26.0596 18.3694 26.0062C18.401 25.9527 18.4428 25.9059 18.4925 25.8686C18.5421 25.8313 18.5987 25.8041 18.6588 25.7887L22.3783 24.8312C22.4998 24.8001 22.6287 24.8185 22.7366 24.8822C22.8446 24.946 22.9229 25.05 22.9543 25.1714L24.0843 29.5608C24.0998 29.621 24.1033 29.6836 24.0946 29.7451C24.0859 29.8066 24.0651 29.8658 24.0335 29.9193C24.0019 29.9727 23.9601 30.0195 23.9105 30.0568C23.8608 30.0941 23.8043 30.1213 23.7441 30.1368V30.136Z" fill="#8B5CF6"/>
<path d="M39.3453 29.4899L20.7446 34.2779C20.6381 34.3076 20.5243 34.2958 20.4261 34.2449C20.3279 34.1939 20.2528 34.1076 20.2158 34.0033C20.1986 33.9488 20.1927 33.8914 20.1984 33.8346C20.2041 33.7777 20.2214 33.7226 20.2491 33.6727C20.2768 33.6227 20.3144 33.5789 20.3596 33.544C20.4048 33.5091 20.4567 33.4837 20.512 33.4695L39.3316 28.625C39.8328 28.879 39.7007 29.3983 39.3453 29.4899Z" fill="#F2F2F2"/>
<path d="M39.8964 31.6264L21.2954 36.4146C21.1889 36.4443 21.075 36.4325 20.9769 36.3816C20.8787 36.3306 20.8035 36.2443 20.7666 36.14C20.7494 36.0856 20.7435 36.0281 20.7492 35.9713C20.7549 35.9144 20.7722 35.8594 20.7999 35.8094C20.8276 35.7594 20.8652 35.7157 20.9104 35.6807C20.9556 35.6458 21.0075 35.6204 21.0628 35.6062L39.8823 30.7617C40.3836 31.0157 40.2516 31.5351 39.8962 31.6266L39.8964 31.6264Z" fill="#F2F2F2"/>
<path d="M40.439 33.7672L21.8384 38.5552C21.7319 38.585 21.618 38.5732 21.5198 38.5222C21.4217 38.4712 21.3465 38.3849 21.3095 38.2807C21.2923 38.2262 21.2864 38.1688 21.2922 38.1119C21.2979 38.0551 21.3151 38 21.3428 37.95C21.3706 37.9001 21.4082 37.8563 21.4534 37.8213C21.4986 37.7864 21.5504 37.761 21.6058 37.7468L40.4252 32.9023C40.9264 33.1563 40.7944 33.6757 40.439 33.7672Z" fill="#F2F2F2"/>
<path d="M40.9978 35.9039L22.397 40.6919C22.2904 40.7217 22.1766 40.7099 22.0784 40.6589C21.9803 40.608 21.9051 40.5216 21.8681 40.4174C21.8509 40.3629 21.845 40.3055 21.8508 40.2486C21.8565 40.1918 21.8737 40.1367 21.9014 40.0867C21.9292 40.0368 21.9668 39.993 22.012 39.9581C22.0572 39.9231 22.109 39.8978 22.1644 39.8835L40.9839 35.0391C41.485 35.293 41.3532 35.8124 40.9978 35.9039Z" fill="#F2F2F2"/>
<path d="M41.5484 38.0406L22.9478 42.8287C22.8412 42.8584 22.7274 42.8466 22.6292 42.7956C22.531 42.7447 22.4559 42.6583 22.4189 42.5541C22.4017 42.4996 22.3958 42.4422 22.4015 42.3854C22.4073 42.3285 22.4245 42.2734 22.4522 42.2235C22.4799 42.1735 22.5176 42.1297 22.5628 42.0948C22.608 42.0598 22.6598 42.0345 22.7151 42.0202L41.5347 37.1758C42.0358 37.4297 41.9038 37.9491 41.5484 38.0406Z" fill="#F2F2F2"/>
<path d="M21.8973 57.7069C21.8297 57.7244 21.7582 57.7195 21.6936 57.6929L21.6897 57.6912L20.8439 57.3326C20.8047 57.3159 20.7692 57.2917 20.7393 57.2613C20.7095 57.2309 20.6859 57.1949 20.67 57.1554C20.6541 57.1159 20.6461 57.0737 20.6465 57.0311C20.6469 56.9885 20.6557 56.9464 20.6723 56.9072C20.689 56.868 20.7132 56.8325 20.7436 56.8027C20.774 56.7729 20.81 56.7493 20.8495 56.7334C20.889 56.7175 20.9312 56.7095 20.9738 56.7099C21.0164 56.7103 21.0585 56.719 21.0977 56.7357L21.6457 56.9688L22.3639 55.2793C22.3975 55.2002 22.4612 55.1377 22.5409 55.1056C22.6206 55.0734 22.7099 55.0742 22.789 55.1079L22.7847 55.1189L22.7891 55.1077C22.8682 55.1414 22.9307 55.2051 22.9628 55.2849C22.995 55.3646 22.9942 55.4539 22.9606 55.533L22.1157 57.5194C22.0961 57.5652 22.0662 57.6059 22.0284 57.6383C21.9905 57.6706 21.9457 57.6939 21.8974 57.7061L21.8973 57.7069Z" fill="white"/>
<path d="M97.8059 73.5929L57.3228 65.7238C55.9501 65.4554 54.74 64.6534 53.958 63.4939C53.1759 62.3343 52.8858 60.9119 53.1512 59.5387L62.3929 11.9945C62.6613 10.622 63.4632 9.41195 64.6226 8.62989C65.7821 7.84783 67.2044 7.55762 68.5776 7.82293L106.241 15.1439L113 23.0737L103.991 69.4209C103.722 70.7935 102.921 72.0037 101.761 72.7859C100.602 73.568 99.1791 73.8583 97.8059 73.5929Z" fill="#E6E6E6"/>
<path d="M68.2821 9.31442C67.3043 9.1255 66.2915 9.33216 65.4658 9.88907C64.6401 10.446 64.0691 11.3077 63.878 12.2851L54.6363 59.8292C54.4474 60.8071 54.6541 61.8199 55.211 62.6456C55.7679 63.4712 56.6296 64.0423 57.607 64.2334L98.0901 72.1025C99.068 72.2915 100.081 72.0848 100.906 71.5279C101.732 70.971 102.303 70.1093 102.494 69.1319L111.364 23.5029L105.424 16.534L68.2821 9.31442Z" fill="white"/>
<path d="M98.2124 29.4788L79.781 25.8961C79.5523 25.8517 79.3506 25.7182 79.2203 25.525C79.0901 25.3319 79.0418 25.0949 79.0863 24.8662C79.1307 24.6375 79.2642 24.4358 79.4574 24.3056C79.6505 24.1753 79.8875 24.1271 80.1162 24.1715L98.5481 27.7543C98.7768 27.7988 98.9784 27.9322 99.1087 28.1254C99.239 28.3185 99.2872 28.5555 99.2427 28.7842C99.1983 29.0129 99.0648 29.2146 98.8717 29.3449C98.6785 29.4751 98.4415 29.5234 98.2128 29.4789L98.2124 29.4788Z" fill="#8B5CF6"/>
<path d="M101.204 33.0765L79.2155 28.8024C78.9869 28.7579 78.7852 28.6244 78.6549 28.4313C78.5246 28.2381 78.4764 28.0012 78.5209 27.7725C78.5653 27.5438 78.6988 27.3421 78.8919 27.2118C79.0851 27.0815 79.3221 27.0333 79.5508 27.0778L101.539 31.3519C101.768 31.3963 101.97 31.5298 102.1 31.723C102.23 31.9161 102.278 32.1531 102.234 32.3818C102.189 32.6105 102.056 32.8122 101.863 32.9424C101.67 33.0727 101.433 33.1209 101.204 33.0765Z" fill="#8B5CF6"/>
<path d="M96.0031 40.7932L77.5722 37.2106C77.3435 37.1661 77.1065 37.2143 76.9134 37.3446C76.7203 37.4749 76.5868 37.6765 76.5424 37.9052C76.4979 38.1339 76.5461 38.3708 76.6764 38.564C76.8067 38.7571 77.0083 38.8906 77.237 38.935L95.6679 42.5176C95.8952 42.5587 96.1296 42.5086 96.3202 42.3782C96.5108 42.2478 96.6424 42.0475 96.6865 41.8208C96.7305 41.5941 96.6835 41.3591 96.5557 41.1668C96.4278 40.9745 96.2293 40.8402 96.0031 40.7932Z" fill="#CCCCCC"/>
<path d="M99.0053 44.3971L77.0172 40.123C76.9033 40.0993 76.7858 40.0985 76.6716 40.1205C76.5574 40.1426 76.4487 40.1871 76.3518 40.2516C76.255 40.316 76.1719 40.399 76.1073 40.4958C76.0428 40.5926 75.9981 40.7012 75.9759 40.8154C75.9537 40.9296 75.9544 41.0471 75.978 41.161C76.0016 41.2749 76.0475 41.383 76.1132 41.479C76.1789 41.5751 76.263 41.6571 76.3607 41.7203C76.4583 41.7836 76.5675 41.8268 76.682 41.8475L98.67 46.1215C98.7839 46.1452 98.9013 46.146 99.0155 46.124C99.1298 46.1019 99.2385 46.0574 99.3353 45.993C99.4322 45.9285 99.5153 45.8455 99.5798 45.7487C99.6444 45.6519 99.689 45.5433 99.7112 45.4291C99.7334 45.3149 99.7327 45.1974 99.7091 45.0835C99.6856 44.9696 99.6396 44.8615 99.5739 44.7655C99.5082 44.6695 99.4241 44.5875 99.3265 44.5242C99.2289 44.461 99.1198 44.4178 99.0053 44.3971Z" fill="#CCCCCC"/>
<path d="M93.1323 55.5609L74.7009 51.9781C74.4722 51.9337 74.2705 51.8002 74.1403 51.6071C74.01 51.4139 73.9618 51.1769 74.0062 50.9482C74.0507 50.7195 74.1842 50.5179 74.3773 50.3876C74.5704 50.2573 74.8074 50.2091 75.0361 50.2536L93.468 53.8363C93.6967 53.8808 93.8983 54.0143 94.0286 54.2074C94.1589 54.4006 94.2071 54.6376 94.1627 54.8663C94.1182 55.0949 93.9847 55.2966 93.7916 55.4269C93.5984 55.5572 93.3614 55.6054 93.1328 55.5609L93.1323 55.5609Z" fill="#CCCCCC"/>
<path d="M96.1307 59.1624L74.1423 54.8883C73.9136 54.8439 73.7119 54.7104 73.5817 54.5172C73.4514 54.3241 73.4032 54.0871 73.4476 53.8584C73.4921 53.6297 73.6256 53.428 73.8187 53.2977C74.0118 53.1675 74.2488 53.1193 74.4775 53.1637L96.4659 57.4378C96.6946 57.4823 96.8963 57.6158 97.0266 57.8089C97.1569 58.002 97.2051 58.239 97.1606 58.4677C97.1162 58.6964 96.9827 58.8981 96.7895 59.0284C96.5964 59.1587 96.3594 59.2069 96.1307 59.1624Z" fill="#CCCCCC"/>
<path d="M71.3981 28.0434C73.0813 28.3706 74.7111 27.2713 75.0383 25.5881C75.3655 23.9049 74.2662 22.2751 72.5829 21.9479C70.8997 21.6207 69.2699 22.72 68.9427 24.4032C68.6155 26.0865 69.7148 27.7162 71.3981 28.0434Z" fill="#8B5CF6"/>
<path d="M71.4577 26.1005C71.3891 26.0873 71.3266 26.0521 71.2798 26.0003L71.2768 25.9971L70.667 25.3099C70.6114 25.2453 70.5833 25.1614 70.5891 25.0763C70.5948 24.9912 70.6338 24.9118 70.6977 24.8553C70.7615 24.7988 70.845 24.7697 70.9302 24.7743C71.0153 24.7789 71.0952 24.8169 71.1526 24.88L71.5476 25.326L72.9216 24.1088C72.9535 24.0806 72.9906 24.0589 73.0309 24.045C73.0712 24.0311 73.1137 24.0253 73.1562 24.0279C73.1987 24.0305 73.2403 24.0414 73.2786 24.0601C73.3169 24.0788 73.3511 24.1048 73.3793 24.1367L73.3708 24.1445L73.3796 24.1364C73.4366 24.2008 73.4656 24.2852 73.4604 24.371C73.4551 24.4568 73.4161 24.537 73.3518 24.5941L71.7351 26.0251C71.6977 26.0581 71.6532 26.082 71.6052 26.095C71.5571 26.108 71.5066 26.1097 71.4577 26.1L71.4577 26.1005Z" fill="white"/>
<path d="M72.8188 38.69C72.7412 39.0903 72.5854 39.4714 72.3605 39.8116C72.1355 40.1517 71.8458 40.4441 71.5078 40.6722C71.1698 40.9004 70.7901 41.0597 70.3906 41.141C69.991 41.2224 69.5793 41.2243 69.179 41.1465C69.1527 41.142 69.1267 41.1358 69.1012 41.1281C68.5049 40.9963 67.9608 40.6915 67.5369 40.252C67.113 39.8124 66.8281 39.2576 66.7179 38.657C66.6078 38.0563 66.6772 37.4365 66.9175 36.8752C67.1578 36.3138 67.5583 35.8357 68.069 35.5008C68.5796 35.166 69.1777 34.9891 69.7883 34.9924C70.399 34.9957 70.9951 35.179 71.5021 35.5194C72.0091 35.8598 72.4044 36.3422 72.6386 36.9062C72.8728 37.4701 72.9355 38.0906 72.8188 38.69Z" fill="#8B5CF6"/>
<path d="M66.3248 54.1255C68.0081 54.4527 69.6378 53.3534 69.965 51.6701C70.2922 49.9869 69.1929 48.3571 67.5097 48.0299C65.8264 47.7027 64.1967 48.802 63.8695 50.4853C63.5423 52.1685 64.6416 53.7983 66.3248 54.1255Z" fill="#8B5CF6"/>
<path d="M112.804 23.2472L106.538 22.0294C106.081 21.9405 105.678 21.6735 105.417 21.2872C105.156 20.9009 105.06 20.4269 105.149 19.9695L106.048 15.3421C106.052 15.3219 106.062 15.3031 106.076 15.2881C106.09 15.273 106.108 15.2622 106.128 15.257C106.148 15.2517 106.169 15.2521 106.189 15.2583C106.209 15.2644 106.226 15.276 106.24 15.2916L112.908 23.0675C112.923 23.0848 112.932 23.1063 112.934 23.129C112.936 23.1517 112.931 23.1745 112.919 23.1942C112.908 23.2139 112.891 23.2295 112.87 23.239C112.849 23.2484 112.826 23.2511 112.804 23.2468L112.804 23.2472Z" fill="#CCCCCC"/>
<path d="M75.6781 69.515C75.4852 69.8313 75.1745 70.058 74.8145 70.1453C74.4544 70.2325 74.0745 70.1731 73.7582 69.9802L57.4595 60.0387C57.1432 59.8458 56.9165 59.5351 56.8293 59.1751C56.7421 58.815 56.8015 58.435 56.9944 58.1187C57.1873 57.8024 57.498 57.5757 57.8581 57.4885C58.2181 57.4013 58.5981 57.4606 58.9144 57.6536L75.2129 67.5951C75.5291 67.788 75.7558 68.0987 75.843 68.4587C75.9302 68.8188 75.871 69.1987 75.6781 69.515Z" fill="#2E1065"/>
<path d="M59.3713 59.5727C58.2204 61.4596 56.5358 62.9629 54.5305 63.8925C52.5252 64.822 50.2893 65.1361 48.1055 64.7949C45.9218 64.4537 43.8882 63.4726 42.262 61.9757C40.6358 60.4788 39.4901 58.5332 38.9696 56.3851C38.4491 54.237 38.5772 51.9828 39.3379 49.9076C40.0985 47.8323 41.4575 46.0292 43.2429 44.7263C45.0282 43.4234 47.1599 42.6791 49.3683 42.5877C51.5766 42.4963 53.7625 43.0617 55.6495 44.2126C56.9025 44.9767 57.9927 45.9802 58.8578 47.1657C59.7229 48.3512 60.3461 49.6955 60.6917 51.1218C61.0373 52.5481 61.0986 54.0285 60.872 55.4785C60.6455 56.9286 60.1355 58.3197 59.3713 59.5727ZM42.6754 49.388C41.8122 50.8033 41.3881 52.4427 41.4566 54.099C41.5252 55.7553 42.0834 57.3541 43.0606 58.6931C44.0378 60.0322 45.3901 61.0514 46.9466 61.6219C48.503 62.1924 50.1937 62.2885 51.8048 61.8982C53.4159 61.5078 54.875 60.6484 55.9977 59.4288C57.1204 58.2091 57.8562 56.6839 58.1121 55.046C58.368 53.4082 58.1324 51.7313 57.4352 50.2273C56.738 48.7233 55.6105 47.4598 54.1953 46.5967C52.2975 45.4392 50.0176 45.083 47.8572 45.6065C45.6968 46.13 43.8328 47.4902 42.6754 49.388Z" fill="#2E1065"/>
<path d="M46.8772 61.8603C51.4179 63.4238 56.3664 61.0103 57.9299 56.4696C59.4934 51.9289 57.0798 46.9804 52.5391 45.4169C47.9984 43.8534 43.0499 46.2669 41.4864 50.8077C39.9229 55.3484 42.3364 60.2968 46.8772 61.8603Z" fill="#8B5CF6"/>
</svg>
