<svg width="156" height="36" viewBox="0 0 156 36" fill="none" xmlns="http://www.w3.org/2000/svg">
<g clip-path="url(#clip0_40004338_79655)">
<path d="M19.9012 35.9968C17.3341 35.9968 14.766 35.9888 12.199 35.9968C10.6244 36.0035 9.42628 35.3716 8.60343 33.9461C7.29694 31.6851 5.97732 29.4242 4.60628 27.2141C3.1838 24.9192 1.88497 22.5464 0.521583 20.2142C-0.134944 19.0837 -0.0966465 17.8311 0.235994 16.591C0.564257 15.378 1.34115 14.4182 1.96047 13.3692C3.33699 11.0472 4.72336 8.72742 6.08456 6.39412C6.98509 4.85215 7.85499 3.28984 8.8354 1.80213C9.52038 0.763223 10.5314 0.20929 11.7274 0.0928508C13.941 -0.12307 16.159 0.109808 18.3758 0.0838071C19.9526 0.0657194 21.5337 0.151636 23.1061 0.062328C24.7638 -0.0326319 26.4128 0.116591 28.0673 0.100764C29.5324 0.0883289 30.6529 0.846878 31.4254 2.12319C32.3737 3.68927 33.3104 5.26101 34.2353 6.8384C34.7157 7.65347 35.1457 8.50133 35.6502 9.29831C36.5387 10.7012 37.3166 12.172 38.1975 13.5806C38.9207 14.737 39.7239 15.8698 39.9482 17.2953C40.1244 18.4337 39.8727 19.4794 39.3387 20.4493C38.5728 21.8387 37.762 23.2032 36.9512 24.5665C36.2268 25.7852 35.4565 26.9744 34.7409 28.1999C33.709 29.9657 32.6717 31.7292 31.6519 33.5018C31.0326 34.5769 30.2677 35.3716 29.1538 35.8057C28.7216 35.9741 28.2511 35.9945 27.7861 35.9945H19.9077L19.9012 35.9968ZM20.0379 2.67712C17.6044 2.67712 15.1713 2.67712 12.7385 2.67712C12.4099 2.67399 12.082 2.70696 11.7602 2.77547C11.4495 2.84217 11.1562 2.95522 10.9735 3.25366C10.2863 4.36944 9.60026 5.48409 8.92622 6.60891C7.93924 8.25262 6.9643 9.91216 5.98389 11.5649C5.90073 11.704 5.72894 11.8385 5.86352 12.0171C5.99811 12.1957 6.21477 12.1618 6.36358 12.0861C6.97962 11.7718 7.64162 11.7085 8.30471 11.5943C10.0797 11.2863 11.9026 11.4953 13.569 12.198C15.2442 12.8876 16.6853 13.9932 18.0826 15.1542C18.2172 15.2672 18.3452 15.4594 18.5422 15.3577C18.7391 15.2559 18.6746 15.031 18.6756 14.8523C18.6756 13.8654 18.6756 12.8785 18.6822 11.8916C18.6926 11.7396 18.6645 11.5873 18.6009 11.4498C18.5372 11.3123 18.44 11.1942 18.3189 11.1071C17.918 10.7924 17.6212 10.3573 17.4691 9.8614C17.3171 9.3655 17.3173 8.83315 17.4698 8.33741C17.7784 7.31998 18.4546 6.63378 19.4263 6.43256C19.9224 6.31842 20.4402 6.35975 20.9134 6.55126C21.3867 6.74277 21.7939 7.07575 22.083 7.50764C22.9081 8.72064 22.6991 10.2807 21.4484 11.2846C21.1847 11.4971 21.0928 11.6927 21.0971 12.0081C21.1125 13.0718 21.2252 14.13 21.1923 15.196C21.1803 15.6086 21.3663 15.7172 21.7394 15.5555C22.1356 15.3823 22.5183 15.1779 22.884 14.9439C23.6499 14.4533 24.7617 14.2656 24.7441 12.9667C24.7441 12.8537 24.8623 12.7519 24.8951 12.6355C25.312 11.1919 27.7937 10.3587 29.1473 12.103C29.8454 13.0074 29.9603 14.4408 29.2818 15.3011C28.6319 16.1264 27.8594 16.6577 26.5945 16.2677C26.0036 16.0857 25.579 16.21 25.0954 16.4938C24.2835 16.9754 23.5121 17.5316 22.6651 17.951C22.3369 18.1149 22.361 18.3308 22.629 18.5422C22.8304 18.7005 23.047 18.8384 23.2451 19.0001C24.2474 19.8219 25.2716 20.6087 26.4325 21.1864C27.902 21.9167 29.4449 22.3169 31.072 22.0636C32.9868 21.7652 34.7146 20.9806 36.3308 19.857C37.5344 19.0193 37.5935 17.7091 36.9359 16.6498C36.0944 15.2932 35.2672 13.9174 34.487 12.519C33.8546 11.3886 33.1674 10.2852 32.5174 9.16153C31.5655 7.50877 30.4953 5.92724 29.6287 4.22248C29.0685 3.118 28.2949 2.60025 27.0278 2.65112C24.6982 2.74156 22.3675 2.67599 20.0379 2.67712ZM18.6822 22.6594C18.6822 22.0738 18.6899 21.4882 18.6822 20.9015C18.6756 20.4493 18.598 20.4199 18.2128 20.646C17.3713 21.1412 16.5605 21.6928 15.6633 22.0806C15.3919 22.1936 15.2606 22.4197 15.2092 22.7204C14.9575 24.181 14.2736 24.9283 12.8391 25.03C11.0632 25.1555 10.0587 23.9538 10.1441 22.2513C10.2415 20.3442 12.1323 19.4647 13.5121 19.9904C13.6291 20.0426 13.7558 20.0681 13.8833 20.0649C14.0108 20.0618 14.1361 20.0302 14.2507 19.9723C15.265 19.4308 16.2826 18.8791 17.2893 18.3139C17.6416 18.1138 17.6307 17.9306 17.2893 17.7158C16.8428 17.4366 16.4259 17.1144 15.9981 16.8115C14.7321 15.9071 13.5547 14.8591 12.0097 14.4182C10.7142 14.0474 9.41205 13.9186 8.1187 14.2068C6.29574 14.6093 4.61065 15.3746 3.17395 16.6521C2.6925 17.0828 2.44192 17.8956 2.62685 18.5264C2.78551 19.0475 3.05359 19.502 3.3348 19.9564C4.05698 21.1253 4.78135 22.292 5.46961 23.4813C6.10316 24.5778 6.79908 25.6292 7.40417 26.7506C8.39991 28.5887 9.52804 30.3512 10.5643 32.1667C11.037 32.9953 11.6245 33.46 12.6126 33.4181C14.6665 33.3311 16.7247 33.4181 18.7807 33.4328C20.2032 33.4407 21.6377 33.3605 23.0656 33.4814C23.5963 33.5267 24.1336 33.3435 24.6708 33.4159C25.7574 33.5628 26.8472 33.4554 27.9349 33.4916C28.18 33.5007 28.4305 33.4769 28.5914 33.2655C28.8901 32.8823 29.2304 32.5115 29.4405 32.0774C29.9876 30.9469 30.7536 29.9645 31.3291 28.8544C31.5453 28.417 31.791 27.9958 32.0644 27.5939C32.7669 26.6115 33.2681 25.5026 33.9147 24.4874C33.9913 24.3664 34.1172 24.207 34.0023 24.0657C33.8874 23.9244 33.7265 24.0657 33.5941 24.1132C32.6437 24.4633 31.647 24.6612 30.6387 24.6999C29.5631 24.7293 28.4929 24.6683 27.4512 24.3461C26.3078 23.9911 25.1862 23.5943 24.1981 22.8685C23.3118 22.2185 22.4047 21.599 21.5053 20.9693C21.3959 20.8925 21.2799 20.7964 21.1365 20.88C21.0271 20.9456 21.0402 21.0632 21.0643 21.1694C21.2547 22.0184 21.1573 22.8821 21.1847 23.7379C21.2033 24.3461 21.1168 24.9633 21.8314 25.2358C21.8565 25.2448 21.874 25.2776 21.8937 25.3002C22.6597 26.1605 22.7636 27.3757 22.1443 28.4305C21.6092 29.3439 20.503 30.0188 19.4569 29.6898C18.5564 29.4072 17.7707 28.9595 17.5333 27.9557C17.2718 26.8478 17.4086 25.7999 18.3769 25.0458C18.4811 24.9701 18.5647 24.8679 18.6195 24.7491C18.6743 24.6303 18.6986 24.4989 18.6899 24.3676C18.6767 23.8012 18.6822 23.2303 18.6822 22.6594Z" fill="#7C3AED"/>
</g>
<path d="M49.7216 27V9.54545H60.9034V12.196H52.8835V16.9347H60.1364V19.5852H52.8835V27H49.7216ZM71.1712 21.4943V13.9091H74.2564V27H71.2649V24.6733H71.1286C70.8331 25.4062 70.3473 26.0057 69.6712 26.4716C69.0007 26.9375 68.174 27.1705 67.1911 27.1705C66.3331 27.1705 65.5746 26.9801 64.9155 26.5994C64.2621 26.2131 63.7507 25.6534 63.3814 24.9205C63.0121 24.1818 62.8274 23.2898 62.8274 22.2443V13.9091H65.9126V21.767C65.9126 22.5966 66.1399 23.2557 66.5945 23.7443C67.049 24.233 67.6456 24.4773 68.3842 24.4773C68.8388 24.4773 69.2791 24.3665 69.7053 24.1449C70.1314 23.9233 70.4808 23.5938 70.7536 23.1562C71.032 22.7131 71.1712 22.1591 71.1712 21.4943ZM87.7756 17.3693L84.9631 17.6761C84.8835 17.392 84.7443 17.125 84.5455 16.875C84.3523 16.625 84.0909 16.4233 83.7614 16.2699C83.4318 16.1165 83.0284 16.0398 82.5511 16.0398C81.9091 16.0398 81.3693 16.179 80.9318 16.4574C80.5 16.7358 80.2869 17.0966 80.2926 17.5398C80.2869 17.9205 80.4261 18.2301 80.7102 18.4688C81 18.7074 81.4773 18.9034 82.142 19.0568L84.375 19.5341C85.6136 19.8011 86.5341 20.2244 87.1364 20.804C87.7443 21.3835 88.0511 22.142 88.0568 23.0795C88.0511 23.9034 87.8097 24.6307 87.3324 25.2614C86.8608 25.8864 86.2045 26.375 85.3636 26.7273C84.5227 27.0795 83.5568 27.2557 82.4659 27.2557C80.8636 27.2557 79.5739 26.9205 78.5966 26.25C77.6193 25.5739 77.0369 24.6335 76.8494 23.429L79.858 23.1392C79.9943 23.7301 80.2841 24.1761 80.7273 24.4773C81.1705 24.7784 81.7472 24.929 82.4574 24.929C83.1903 24.929 83.7784 24.7784 84.2216 24.4773C84.6705 24.1761 84.8949 23.804 84.8949 23.3608C84.8949 22.9858 84.75 22.6761 84.4602 22.4318C84.1761 22.1875 83.733 22 83.1307 21.8693L80.8977 21.4006C79.642 21.1392 78.7131 20.6989 78.1108 20.0795C77.5085 19.4545 77.2102 18.6648 77.2159 17.7102C77.2102 16.9034 77.429 16.2045 77.8722 15.6136C78.321 15.017 78.9432 14.5568 79.7386 14.233C80.5398 13.9034 81.4631 13.7386 82.5085 13.7386C84.0426 13.7386 85.25 14.0653 86.1307 14.7188C87.017 15.3722 87.5653 16.2557 87.7756 17.3693ZM96.3963 27.2557C95.0838 27.2557 93.9503 26.983 92.9957 26.4375C92.0469 25.8864 91.3168 25.108 90.8054 24.1023C90.294 23.0909 90.0384 21.9006 90.0384 20.5312C90.0384 19.1847 90.294 18.0028 90.8054 16.9858C91.3224 15.9631 92.044 15.1676 92.9702 14.5994C93.8963 14.0256 94.9844 13.7386 96.2344 13.7386C97.0412 13.7386 97.8026 13.8693 98.5185 14.1307C99.2401 14.3864 99.8764 14.7841 100.428 15.3239C100.984 15.8636 101.422 16.5511 101.74 17.3864C102.058 18.2159 102.217 19.2045 102.217 20.3523V21.2983H91.4872V19.2188H99.2599C99.2543 18.6278 99.1264 18.1023 98.8764 17.642C98.6264 17.1761 98.277 16.8097 97.8281 16.5426C97.3849 16.2756 96.8679 16.142 96.277 16.142C95.6463 16.142 95.0923 16.2955 94.6151 16.6023C94.1378 16.9034 93.7656 17.3011 93.4986 17.7955C93.2372 18.2841 93.1037 18.821 93.098 19.4062V21.2216C93.098 21.983 93.2372 22.6364 93.5156 23.1818C93.794 23.7216 94.1832 24.1364 94.6832 24.4261C95.1832 24.7102 95.7685 24.8523 96.4389 24.8523C96.8878 24.8523 97.294 24.7898 97.6577 24.6648C98.0213 24.5341 98.3366 24.3438 98.6037 24.0938C98.8707 23.8438 99.0724 23.5341 99.2088 23.1648L102.089 23.4886C101.908 24.25 101.561 24.9148 101.05 25.483C100.544 26.0455 99.8963 26.483 99.1065 26.7955C98.3168 27.1023 97.4134 27.2557 96.3963 27.2557Z" fill="#6D28D9"/>
<path d="M122.662 15.4347H119.474C119.384 14.9119 119.216 14.4489 118.972 14.0455C118.727 13.6364 118.423 13.2898 118.06 13.0057C117.696 12.7216 117.281 12.5085 116.815 12.3665C116.355 12.2188 115.858 12.1449 115.324 12.1449C114.375 12.1449 113.534 12.3835 112.801 12.8608C112.068 13.3324 111.494 14.0256 111.08 14.9403C110.665 15.8494 110.457 16.9602 110.457 18.2727C110.457 19.608 110.665 20.733 111.08 21.6477C111.5 22.5568 112.074 23.2443 112.801 23.7102C113.534 24.1705 114.372 24.4006 115.315 24.4006C115.838 24.4006 116.327 24.3324 116.781 24.196C117.241 24.054 117.653 23.8466 118.017 23.5739C118.386 23.3011 118.696 22.9659 118.946 22.5682C119.202 22.1705 119.378 21.7159 119.474 21.2045L122.662 21.2216C122.543 22.0511 122.284 22.8295 121.886 23.5568C121.494 24.2841 120.98 24.9261 120.344 25.483C119.707 26.0341 118.963 26.4659 118.111 26.7784C117.259 27.0852 116.313 27.2386 115.273 27.2386C113.739 27.2386 112.369 26.8835 111.165 26.1733C109.96 25.4631 109.011 24.4375 108.318 23.0966C107.625 21.7557 107.278 20.1477 107.278 18.2727C107.278 16.392 107.628 14.7841 108.327 13.4489C109.026 12.108 109.977 11.0824 111.182 10.3722C112.386 9.66193 113.75 9.30682 115.273 9.30682C116.244 9.30682 117.148 9.44318 117.983 9.71591C118.818 9.98864 119.563 10.3892 120.216 10.9176C120.869 11.4403 121.406 12.0824 121.827 12.8438C122.253 13.5994 122.531 14.4631 122.662 15.4347ZM125.558 27V9.54545H132.103C133.444 9.54545 134.569 9.79545 135.478 10.2955C136.393 10.7955 137.083 11.483 137.549 12.358C138.021 13.2273 138.256 14.2159 138.256 15.3239C138.256 16.4432 138.021 17.4375 137.549 18.3068C137.077 19.1761 136.381 19.8608 135.461 20.3608C134.54 20.8551 133.407 21.1023 132.06 21.1023H127.722V18.5028H131.634C132.418 18.5028 133.06 18.3665 133.56 18.0938C134.06 17.821 134.43 17.446 134.668 16.9688C134.913 16.4915 135.035 15.9432 135.035 15.3239C135.035 14.7045 134.913 14.1591 134.668 13.6875C134.43 13.2159 134.058 12.8494 133.552 12.5881C133.052 12.321 132.407 12.1875 131.617 12.1875H128.719V27H125.558ZM140.236 12.196V9.54545H154.162V12.196H148.767V27H145.631V12.196H140.236Z" fill="#6D28D9"/>
<defs>
<clipPath id="clip0_40004338_79655">
<rect width="40" height="36" fill="white"/>
</clipPath>
</defs>
</svg>
